<?xml version="1.0" encoding="utf-8"?>
<!-- Generator: Adobe Illustrator 21.1.0, SVG Export Plug-In . SVG Version: 6.00 Build 0)  -->
<svg version="1.1" id="Layer_2" xmlns="http://www.w3.org/2000/svg" xmlns:xlink="http://www.w3.org/1999/xlink" x="0px" y="0px"
	 viewBox="0 0 40 40" style="enable-background:new 0 0 40 40;" xml:space="preserve">
<style type="text/css">
	.st0{fill:#333333;}
</style>
<path class="st0" d="M9.2,30.9c0.4,0.3,0.8,0.5,1.3,0.5c0.5,0,0.9-0.2,1.3-0.5l6.7-6.8c0.6,0.4,1.2,0.7,1.9,0.9
	c0.9,0.3,1.8,0.4,2.7,0.4c1.3,0,2.5-0.3,3.7-0.9c2-1,3.5-2.7,4.2-4.9c1.5-4.4-0.9-9.2-5.3-10.7c-2.1-0.7-4.4-0.6-6.4,0.4
	c-2,1-3.5,2.7-4.2,4.9v0c-0.8,2.5-0.4,5.1,0.9,7.2l-6.7,6.8C8.5,29,8.5,30.2,9.2,30.9z M17.9,15.3L17.9,15.3
	c0.5-1.4,1.4-2.5,2.7-3.2c0.7-0.4,1.6-0.6,2.4-0.6c0.6,0,1.1,0.1,1.7,0.3c2.8,0.9,4.3,4,3.4,6.9c-0.5,1.4-1.4,2.5-2.7,3.2
	c-1.3,0.6-2.7,0.7-4.1,0.3C18.5,21.2,17,18.2,17.9,15.3z"/>
</svg>
